<?xml version="1.0" standalone="no"?><!DOCTYPE svg PUBLIC "-//W3C//DTD SVG 1.1//EN" "http://www.w3.org/Graphics/SVG/1.1/DTD/svg11.dtd"><svg t="1747447873747" class="icon" viewBox="0 0 1024 1024" version="1.1" xmlns="http://www.w3.org/2000/svg" p-id="2659" xmlns:xlink="http://www.w3.org/1999/xlink" width="200" height="200"><path d="M511.763096 895.585419C191.911161 895.585419 12.794077 545.880636 4.264692 528.821866c-4.264692-12.794077-4.264692-25.588155 0-38.382232C59.705695 383.822322 136.470159 294.26378 230.293393 221.764008c17.05877-12.794077 46.911617-12.794077 59.705695 8.529385 12.794077 17.05877 12.794077 46.911617-8.529385 59.705695-76.764464 59.705695-144.999544 132.205467-191.911161 217.499316 38.382232 68.23508 191.911161 298.528473 422.204554 298.528473 81.029157 0 162.058314-29.852847 226.028701-81.029157 17.05877-12.794077 46.911617-8.529385 59.705695 8.529385 12.794077 17.05877 8.529385 46.911617-8.529385 59.705694-81.029157 59.705695-179.117084 93.823234-277.205011 98.087927v4.264693z m375.292938-204.705239c-8.529385 0-21.323462 0-25.588155-8.529385-17.05877-17.05877-21.323462-42.646925-4.264693-59.705694 29.852847-34.11754 55.441002-68.23508 76.764465-106.617312-38.382232-68.23508-191.911161-298.528473-422.204555-298.528473-25.588155 0-55.441002 0-81.029157 8.529385-21.323462 4.264692-46.911617-8.529385-51.176309-29.852847-4.264692-21.323462 8.529385-46.911617 29.852847-51.17631 34.11754-8.529385 63.970387-12.794077 98.087927-12.794077 319.851935 0 498.969019 349.704782 507.498404 366.763552 4.264692 12.794077 4.264692 25.588155 0 38.382232-25.588155 51.17631-59.705695 98.087927-98.087927 144.999544-8.529385 8.529385-21.323462 17.05877-34.11754 17.05877l4.264693-8.529385z m-379.55763-4.264692c-42.646925 0-85.293849-17.05877-115.146697-46.911618-34.11754-29.852847-51.17631-72.499772-55.441002-119.411389 0-46.911617 12.794077-89.558542 46.911617-123.676081l8.529385-8.529385c17.05877-17.05877 42.646925-17.05877 59.705695 0 17.05877 17.05877 17.05877 42.646925 0 59.705694-17.05877 17.05877-25.588155 38.382232-21.323463 59.705695 0 21.323462 8.529385 42.646925 25.588155 59.705694 17.05877 17.05877 38.382232 25.588155 59.705695 21.323463 21.323462 0 42.646925-8.529385 59.705694-25.588155 17.05877-17.05877 42.646925-17.05877 59.705695 0 17.05877 17.05877 17.05877 42.646925 0 59.705695-29.852847 34.11754-72.499772 51.17631-119.411389 55.441002H511.763096l-4.264692 8.529385z" fill="#040000" p-id="2660"></path><path d="M980.879268 1023.526193c-12.794077 0-21.323462 0-29.852847-12.794078l-938.232344-938.232343C-4.264692 55.441002-4.264692 29.852847 12.794077 12.794077c17.05877-17.05877 42.646925-17.05877 59.705695 0l938.232343 938.232344c17.05877 17.05877 17.05877 42.646925 0 59.705694-17.05877 17.05877-21.323462 12.794077-29.852847 12.794078z" fill="#040000" p-id="2661"></path></svg>