<?xml version="1.0" standalone="no"?><!DOCTYPE svg PUBLIC "-//W3C//DTD SVG 1.1//EN" "http://www.w3.org/Graphics/SVG/1.1/DTD/svg11.dtd"><svg t="1746533958281" class="icon" viewBox="0 0 1024 1024" version="1.1" xmlns="http://www.w3.org/2000/svg" p-id="2730" xmlns:xlink="http://www.w3.org/1999/xlink" width="200" height="200"><path d="M980.879268 1023.526193c-12.794077 0-21.323462 0-29.852847-12.794078l-938.232344-938.232343C-4.264692 55.441002-4.264692 29.852847 12.794077 12.794077c17.05877-17.05877 42.646925-17.05877 59.705695 0l938.232343 938.232344c17.05877 17.05877 17.05877 42.646925 0 59.705694-17.05877 17.05877-21.323462 12.794077-29.852847 12.794078z" fill="currentColor" p-id="2731"></path><path d="M511.763096 682.350795c-46.911617 0-89.558542-17.05877-119.411389-51.17631C358.234167 597.056946 341.175398 554.410021 341.175398 511.763096V383.822322c0-25.588155 17.05877-42.646925 42.646924-42.646924s42.646925 17.05877 42.646925 42.646924v127.940774c0 21.323462 8.529385 42.646925 25.588155 59.705695 17.05877 17.05877 38.382232 25.588155 59.705694 25.588155 21.323462 0 42.646925-8.529385 59.705695-25.588155 17.05877-17.05877 42.646925-17.05877 59.705694 0 17.05877 17.05877 17.05877 42.646925 0 59.705694C597.056946 665.292025 554.410021 682.350795 511.763096 682.350795z m127.940774-243.087471c-25.588155 0-42.646925-17.05877-42.646924-42.646924V170.587699c0-21.323462-8.529385-42.646925-25.588155-59.705695-17.05877-17.05877-38.382232-25.588155-59.705695-25.588155-38.382232 0-76.764464 29.852847-85.293849 68.23508-4.264692 21.323462-25.588155 38.382232-51.17631 34.11754-21.323462-4.264692-38.382232-25.588155-34.117539-51.17631 17.05877-81.029157 85.293849-136.470159 166.323006-136.470159 46.911617 0 89.558542 17.05877 119.411389 51.17631 34.11754 34.11754 51.17631 76.764464 51.17631 119.411389v226.028701c0 25.588155-17.05877 42.646925-42.646925 42.646924h4.264692z" fill="currentColor" p-id="2732"></path><path d="M511.763096 857.203186c-85.293849 0-170.587699-34.11754-238.822778-98.087926C208.969931 695.144873 170.587699 605.586331 170.587699 511.763096v-85.293849c0-25.588155 17.05877-42.646925 42.646924-42.646925s42.646925 17.05877 42.646925 42.646925v85.293849c0 68.23508 25.588155 136.470159 76.764465 183.381777 102.352619 98.087927 264.410933 98.087927 362.49886 0 17.05877-17.05877 42.646925-17.05877 59.705694 0 17.05877 17.05877 17.05877 42.646925 0 59.705694-68.23508 68.23508-153.528929 102.352619-243.087471 102.352619z m294.263781-251.616855h-8.529385c-21.323462 0-38.382232-25.588155-34.11754-51.17631V422.204554c0-25.588155 17.05877-42.646925 42.646925-42.646924s42.646925 17.05877 42.646924 42.646924v85.29385c0 21.323462 0 38.382232-4.264692 59.705694 0 21.323462-21.323462 34.11754-42.646925 34.11754l4.264693 4.264693z" fill="currentColor" p-id="2733"></path><path d="M511.763096 1023.526193c-25.588155 0-42.646925-17.05877-42.646924-42.646925v-170.587699c0-25.588155 17.05877-42.646925 42.646924-42.646925s42.646925 17.05877 42.646925 42.646925v170.587699c0 25.588155-17.05877 42.646925-42.646925 42.646925z" fill="currentColor" p-id="2734"></path><path d="M682.350795 1023.526193H341.175398c-25.588155 0-42.646925-17.05877-42.646925-42.646925s17.05877-42.646925 42.646925-42.646925h341.175397c25.588155 0 42.646925 17.05877 42.646925 42.646925s-17.05877 42.646925-42.646925 42.646925z" fill="currentColor" p-id="2735"></path></svg>
