<?xml version="1.0" standalone="no"?><!DOCTYPE svg PUBLIC "-//W3C//DTD SVG 1.1//EN" "http://www.w3.org/Graphics/SVG/1.1/DTD/svg11.dtd"><svg t="1746533953249" class="icon" viewBox="0 0 1024 1024" version="1.1" xmlns="http://www.w3.org/2000/svg" p-id="2566" xmlns:xlink="http://www.w3.org/1999/xlink" width="200" height="200"><path d="M512 682.666667c-93.866667 0-170.666667-76.8-170.666667-170.666667V170.666667c0-93.866667 76.8-170.666667 170.666667-170.666667s170.666667 76.8 170.666667 170.666667v341.333333c0 93.866667-76.8 170.666667-170.666667 170.666667z m0-597.333334c-46.933333 0-85.333333 38.4-85.333333 85.333334v341.333333c0 46.933333 38.4 85.333333 85.333333 85.333333s85.333333-38.4 85.333333-85.333333V170.666667c0-46.933333-38.4-85.333333-85.333333-85.333334z" fill="currentColor" p-id="2567"></path><path d="M512 853.333333c-187.733333 0-341.333333-153.6-341.333333-341.333333v-85.333333c0-25.6 17.066667-42.666667 42.666666-42.666667s42.666667 17.066667 42.666667 42.666667v85.333333c0 140.8 115.2 256 256 256s256-115.2 256-256v-85.333333c0-25.6 17.066667-42.666667 42.666667-42.666667s42.666667 17.066667 42.666666 42.666667v85.333333c0 187.733333-153.6 341.333333-341.333333 341.333333z" fill="currentColor" p-id="2568"></path><path d="M512 1024c-25.6 0-42.666667-17.066667-42.666667-42.666667v-170.666666c0-25.6 17.066667-42.666667 42.666667-42.666667s42.666667 17.066667 42.666667 42.666667v170.666666c0 25.6-17.066667 42.666667-42.666667 42.666667z" fill="currentColor" p-id="2569"></path><path d="M682.666667 1024H341.333333c-25.6 0-42.666667-17.066667-42.666666-42.666667s17.066667-42.666667 42.666666-42.666666h341.333334c25.6 0 42.666667 17.066667 42.666666 42.666666s-17.066667 42.666667-42.666666 42.666667z" fill="currentColor" p-id="2570"></path></svg>
