<?xml version="1.0" standalone="no"?><!DOCTYPE svg PUBLIC "-//W3C//DTD SVG 1.1//EN" "http://www.w3.org/Graphics/SVG/1.1/DTD/svg11.dtd"><svg t="1725691830706" class="icon" viewBox="0 0 1024 1024" version="1.1" xmlns="http://www.w3.org/2000/svg" p-id="4300" xmlns:xlink="http://www.w3.org/1999/xlink" width="200" height="200"><path d="M731.493669 0a109.714286 109.714286 0 0 0-109.714286 109.714286v804.571428A109.714286 109.714286 0 0 0 731.493669 1024h182.857142a109.714286 109.714286 0 0 0 109.714286-109.714286v-804.571428A109.714286 109.714286 0 0 0 914.350811 0H731.493669zM256.065097 329.142857a36.571429 36.571429 0 0 0-62.464-25.892571l-182.857143 182.857143a36.571429 36.571429 0 0 0 0 51.785142l182.857143 182.857143A36.571429 36.571429 0 0 0 256.065097 694.857143V585.142857h219.428572a73.142857 73.142857 0 0 0 0-146.285714h-219.428572V329.142857z" fill="#000000" p-id="4301"></path></svg>