<?xml version="1.0" standalone="no"?><!DOCTYPE svg PUBLIC "-//W3C//DTD SVG 1.1//EN" "http://www.w3.org/Graphics/SVG/1.1/DTD/svg11.dtd"><svg t="1746065903360" class="icon" viewBox="0 0 1024 1024" version="1.1" xmlns="http://www.w3.org/2000/svg" p-id="2437" xmlns:xlink="http://www.w3.org/1999/xlink" width="200" height="200"><path d="M806.4 1019.733333h-12.8c-136.533333-17.066667-273.066667-64-388.266667-136.533333-106.666667-68.266667-200.533333-162.133333-268.8-268.8C59.733333 499.2 12.8 362.666667 0 226.133333c0-34.133333 8.533333-68.266667 29.866667-93.866666 21.333333-25.6 51.2-42.666667 85.333333-46.933334H256c64 0 119.466667 46.933333 128 110.933334 4.266667 38.4 12.8 76.8 25.6 110.933333 17.066667 46.933333 4.266667 98.133333-29.866667 136.533333l-29.866666 29.866667c51.2 76.8 115.2 145.066667 196.266666 196.266667l29.866667-29.866667c34.133333-34.133333 89.6-46.933333 136.533333-29.866667 34.133333 12.8 72.533333 21.333333 110.933334 25.6 64 8.533333 110.933333 64 110.933333 128v128c0 34.133333-12.8 68.266667-38.4 89.6-25.6 25.6-55.466667 38.4-89.6 38.4zM256 170.666667H128c-17.066667 0-25.6 8.533333-34.133333 17.066666-8.533333 8.533333-12.8 21.333333-8.533334 29.866667 12.8 123.733333 55.466667 247.466667 123.733334 349.866667 64 98.133333 145.066667 183.466667 243.2 243.2 106.666667 68.266667 226.133333 110.933333 349.866666 123.733333 25.6 0 46.933333-21.333333 46.933334-42.666667v-128c0-21.333333-17.066667-42.666667-38.4-42.666666-42.666667-4.266667-85.333333-17.066667-128-34.133334-17.066667-4.266667-34.133333 0-46.933334 8.533334l-55.466666 55.466666c-12.8 12.8-34.133333 17.066667-51.2 8.533334-115.2-64-209.066667-157.866667-273.066667-273.066667-8.533333-17.066667-8.533333-38.4 8.533333-51.2l55.466667-55.466667c12.8-12.8 17.066667-29.866667 8.533333-46.933333-17.066667-42.666667-25.6-85.333333-34.133333-128 0-21.333333-21.333333-38.4-42.666667-38.4L256 170.666667z m507.733333 298.666666c-21.333333 0-38.4-12.8-42.666666-34.133333-12.8-68.266667-68.266667-119.466667-136.533334-136.533333-21.333333-4.266667-38.4-25.6-34.133333-51.2 4.266667-21.333333 25.6-38.4 51.2-34.133334 102.4 21.333333 183.466667 98.133333 200.533333 200.533334 4.266667 21.333333-8.533333 46.933333-34.133333 51.2h-8.533333l4.266666 4.266666z m170.666667-4.266666c-21.333333 0-38.4-17.066667-42.666667-38.4-17.066667-157.866667-140.8-281.6-302.933333-302.933334-21.333333 0-38.4-25.6-38.4-46.933333 0-21.333333 25.6-38.4 46.933333-38.4 200.533333 21.333333 354.133333 174.933333 375.466667 375.466667 0 21.333333-12.8 42.666667-38.4 46.933333h-4.266667l4.266667 4.266667z" fill="currentColor"  p-id="2438"></path></svg>
