<?xml version="1.0" standalone="no"?><!DOCTYPE svg PUBLIC "-//W3C//DTD SVG 1.1//EN" "http://www.w3.org/Graphics/SVG/1.1/DTD/svg11.dtd"><svg t="1725691727669" class="icon" viewBox="0 0 1024 1024" version="1.1" xmlns="http://www.w3.org/2000/svg" p-id="4002" xmlns:xlink="http://www.w3.org/1999/xlink" width="200" height="200"><path d="M766.214823 6.289441a314.472057 314.472057 0 0 0-357.18175 415.395647L33.71433 797.003831a109.699555 109.699555 0 0 0 1.608927 156.724097l40.9545 39.345574a109.699555 109.699555 0 0 0 153.140578-1.170129L609.929524 615.560768a315.203387 315.203387 0 0 0 406.619682-359.302608 92.00136 92.00136 0 0 0-42.344028-61.724283 36.566518 36.566518 0 0 0-44.976817 5.338712l-146.266073 146.266072-0.438798 0.438799a36.566518 36.566518 0 0 1-52.655787 0 36.493385 36.493385 0 0 0-1.974592-1.828326l-54.557245-48.852869a36.566518 36.566518 0 0 1 0.585065-50.315529l146.119806-146.119806a36.566518 36.566518 0 0 0 7.825235-40.22317 92.147626 92.147626 0 0 0-61.651149-52.948319z" fill="#000000" p-id="4003"></path></svg>