<?xml version="1.0" standalone="no"?><!DOCTYPE svg PUBLIC "-//W3C//DTD SVG 1.1//EN" "http://www.w3.org/Graphics/SVG/1.1/DTD/svg11.dtd"><svg t="1746533962753" class="icon" viewBox="0 0 1024 1024" version="1.1" xmlns="http://www.w3.org/2000/svg" p-id="2895" xmlns:xlink="http://www.w3.org/1999/xlink" width="200" height="200"><path d="M981.333333 768c-8.533333 0-17.066667 0-25.6-8.533333l-298.666666-213.333334c-12.8-8.533333-17.066667-21.333333-17.066667-34.133333 0-12.8 8.533333-25.6 17.066667-34.133333l298.666666-213.333334c12.8-8.533333 29.866667-8.533333 42.666667 0 12.8 8.533333 21.333333 21.333333 21.333333 38.4v426.666667c0 17.066667-8.533333 29.866667-21.333333 38.4-4.266667 0-12.8 4.266667-21.333333 4.266667h4.266666V768z m-226.133333-256l183.466667 132.266667V384l-183.466667 132.266667V512z" fill="currentColor" p-id="2896"></path><path d="M597.333333 853.333333H128c-72.533333 0-128-55.466667-128-128V298.666667c0-72.533333 55.466667-128 128-128h469.333333c72.533333 0 128 55.466667 128 128v426.666666c0 72.533333-55.466667 128-128 128zM128 256c-25.6 0-42.666667 17.066667-42.666667 42.666667v426.666666c0 25.6 17.066667 42.666667 42.666667 42.666667h469.333333c25.6 0 42.666667-17.066667 42.666667-42.666667V298.666667c0-25.6-17.066667-42.666667-42.666667-42.666667H128z" fill="currentColor" p-id="2897"></path></svg>
