<?xml version="1.0" standalone="no"?><!DOCTYPE svg PUBLIC "-//W3C//DTD SVG 1.1//EN" "http://www.w3.org/Graphics/SVG/1.1/DTD/svg11.dtd"><svg t="1746533972162" class="icon" viewBox="0 0 1024 1024" version="1.1" xmlns="http://www.w3.org/2000/svg" p-id="3057" xmlns:xlink="http://www.w3.org/1999/xlink" width="200" height="200"><path d="M597.056946 852.938494H127.940774c-72.499772 0-127.940774-55.441002-127.940774-127.940774V298.528473c0-72.499772 55.441002-127.940774 127.940774-127.940774h85.293849c25.588155 0 42.646925 17.05877 42.646925 42.646924s-17.05877 42.646925-42.646925 42.646925H127.940774c-25.588155 0-42.646925 17.05877-42.646925 42.646925v426.469247c0 25.588155 17.05877 42.646925 42.646925 42.646924h469.116172c25.588155 0 42.646925-17.05877 42.646924-42.646924v-42.646925c0-25.588155 17.05877-42.646925 42.646925-42.646925s42.646925 17.05877 42.646925 42.646925v42.646925c0 72.499772-55.441002 127.940774-127.940774 127.940774z m383.822322-85.29385c-25.588155 0-42.646925-17.05877-42.646925-42.646924V383.822322l-187.646468 136.470159c-17.05877 12.794077-38.382232 8.529385-55.441002-4.264692l-42.646925-42.646925c-8.529385-8.529385-12.794077-17.05877-12.794078-29.852847V302.793165c0-25.588155-17.05877-42.646925-42.646924-42.646924h-140.734852c-25.588155 0-42.646925-17.05877-42.646924-42.646925s17.05877-42.646925 42.646924-42.646925H597.056946c72.499772 0 127.940774 55.441002 127.940774 127.940774V426.469247h4.264692c0 4.264692 226.028701-157.793621 226.028701-157.793621 12.794077-8.529385 29.852847-12.794077 42.646925 0 12.794077 8.529385 21.323462 21.323462 21.323462 38.382232v426.469247c0 25.588155-17.05877 42.646925-42.646924 42.646924V767.644644h4.264692z" fill="currentColor" p-id="3058"></path><path d="M980.879268 1023.526193c-12.794077 0-21.323462 0-29.852847-12.794078l-938.232344-938.232343C-4.264692 55.441002-4.264692 29.852847 12.794077 12.794077c17.05877-17.05877 42.646925-17.05877 59.705695 0l938.232343 938.232344c17.05877 17.05877 17.05877 42.646925 0 59.705694-17.05877 17.05877-21.323462 12.794077-29.852847 12.794078z" fill="currentColor" p-id="3059"></path></svg>
